<?xml version="1.0" encoding="UTF-8" standalone="no"?>
<svg
   xmlns:dc="http://purl.org/dc/elements/1.1/"
   xmlns:cc="http://creativecommons.org/ns#"
   xmlns:rdf="http://www.w3.org/1999/02/22-rdf-syntax-ns#"
   xmlns:svg="http://www.w3.org/2000/svg"
   xmlns="http://www.w3.org/2000/svg"
   id="svg22074"
   version="1.1"
   viewBox="0 0 39.863894 14.81666"
   height="55.999977"
   width="150.66669">
  <defs
     id="defs22068" />
  <metadata
     id="metadata22071">
    <rdf:RDF>
      <cc:Work
         rdf:about="">
        <dc:format>image/svg+xml</dc:format>
        <dc:type
           rdf:resource="http://purl.org/dc/dcmitype/StillImage" />
        <dc:title></dc:title>
      </cc:Work>
    </rdf:RDF>
  </metadata>
  <g
     transform="translate(55.083731,-141.425)"
     id="layer1">
    <path
       style="fill:#ffffff;stroke-width:0.35277775"
       id="path2210"
       d="m -54.262422,143.22885 c -0.220486,0 -0.410654,0.0965 -0.56775,0.25356 -0.158474,0.19017 -0.253559,0.38034 -0.253559,0.6022 0,0.22187 0.06339,0.41066 0.221866,0.60083 0.157095,0.15847 0.347264,0.25356 0.569129,0.25356 0.25218,0 0.442348,-0.0951 0.599447,-0.25356 0.158471,-0.1571 0.221862,-0.37896 0.221862,-0.60083 0,-0.22186 -0.06339,-0.41203 -0.221862,-0.6022 -0.157099,-0.1571 -0.347267,-0.25356 -0.569133,-0.25356 z m -0.505738,12.63248 h 0.981163 v -9.52914 h -0.981163 z m 11.03395,-1.10795 c -0.09508,-0.31557 -0.158471,-0.60082 -0.158471,-0.85438 v -3.45061 c 0,-0.66559 -0.06339,-1.23472 -0.221865,-1.71014 -0.157096,-0.47405 -0.347268,-0.85439 -0.56913,-1.20303 -0.220486,-0.31695 -0.474045,-0.57051 -0.757922,-0.79099 -0.285252,-0.19017 -0.569129,-0.34865 -0.822688,-0.44373 -0.283877,-0.0951 -0.537436,-0.15848 -0.789616,-0.19017 -0.253559,-0.0317 -0.442351,-0.0634 -0.569129,-0.0634 -0.442352,0 -0.853006,0.0634 -1.233347,0.15847 -0.37896,0.12678 -0.726224,0.25356 -1.043174,0.47543 -0.31557,0.19017 -0.600823,0.41065 -0.821309,0.69591 -0.253559,0.25356 -0.442351,0.53881 -0.569129,0.82269 h -0.03168 l -0.09508,-1.89894 h -0.94809 c 0.03168,0.38034 0.03168,0.7593 0.06339,1.13964 0,0.38033 0.03168,0.7593 0.03168,1.13963 v 7.24986 h 0.979787 v -5.79327 c 0,-0.15847 0.03168,-0.28525 0.06339,-0.44373 0.03168,-0.15847 0.06339,-0.28387 0.09508,-0.41065 0.09371,-0.31695 0.252183,-0.60221 0.474045,-0.85577 0.220486,-0.28387 0.474045,-0.50574 0.726228,-0.7276 0.285253,-0.22186 0.600823,-0.38034 0.949466,-0.50712 0.347267,-0.12678 0.694531,-0.18879 1.105189,-0.18879 0.537433,0 1.012857,0.0951 1.391818,0.28388 0.378961,0.19017 0.695911,0.44373 0.948091,0.79237 0.253559,0.31557 0.410654,0.69591 0.505739,1.10794 0.09508,0.41204 0.158474,0.85439 0.158474,1.32981 v 3.45061 c 0,0.44372 0.06339,0.85438 0.157096,1.23472 0.09509,0.38034 0.190172,0.66421 0.285256,0.82269 0.09508,0.19017 0.126777,0.28525 0.158475,0.31695 l 0.979783,-0.41204 c 0,-0.0317 -0.06339,-0.12678 -0.158474,-0.34726 -0.09508,-0.15848 -0.190169,-0.41204 -0.283877,-0.72899 z m 9.610439,-7.75559 c -0.221862,-0.47543 -0.505738,-0.91916 -0.822688,-1.32981 -0.31557,-0.41203 -0.664213,-0.82407 -1.043175,-1.20441 -0.158474,-0.22048 -0.347267,-0.37896 -0.537435,-0.53743 -0.190169,-0.15848 -0.378961,-0.31695 -0.56913,-0.44373 l -0.69591,-0.50574 c -0.410655,-0.31695 -0.8847,-0.6022 -1.390438,-0.85576 -0.505743,-0.25218 -1.011481,-0.47405 -1.51722,-0.69591 l -0.410658,0.79099 c 0.442351,0.12678 0.884703,0.31695 1.295358,0.50712 0.442351,0.19017 0.822688,0.41204 1.138258,0.63252 l 0.727604,0.50712 c 0.757922,0.50712 1.390442,1.04455 1.896181,1.64675 0.505742,0.60083 0.94809,1.23473 1.328431,1.86725 l -0.03168,0.0634 c -0.569129,-0.56913 -1.138259,-0.94947 -1.675694,-1.10795 -0.537433,-0.19017 -1.106565,-0.25356 -1.675695,-0.25356 -0.600823,0 -1.201649,0.12678 -1.770778,0.34865 -0.56913,0.25356 -1.106565,0.57051 -1.548913,1.01286 -0.442352,0.44372 -0.821313,0.98116 -1.106566,1.61506 -0.283876,0.63252 -0.410654,1.3615 -0.410654,2.15249 0,0.69591 0.126778,1.3615 0.348643,1.93063 0.220486,0.60221 0.56775,1.10932 0.979784,1.55167 0.410655,0.44373 0.916397,0.79238 1.51722,1.01286 0.600826,0.25356 1.231966,0.38034 1.927877,0.38034 0.600823,0 1.201649,-0.0951 1.770779,-0.28525 0.569129,-0.19017 1.106565,-0.50574 1.58061,-0.94947 0.474045,-0.41066 0.853003,-0.98116 1.138259,-1.64538 0.283876,-0.66559 0.442348,-1.45658 0.442348,-2.40743 0,-0.72761 -0.06339,-1.3932 -0.221862,-2.02572 -0.157096,-0.6022 -0.378961,-1.20302 -0.662838,-1.77215 z m -0.443727,5.85666 c -0.220486,0.53743 -0.474045,1.01286 -0.853006,1.3615 -0.347264,0.37896 -0.790995,0.63252 -1.26504,0.82269 -0.474045,0.19017 -1.011477,0.28525 -1.548913,0.28525 -0.474045,0 -0.94809,-0.0951 -1.390442,-0.28525 -0.442348,-0.19017 -0.853006,-0.44373 -1.201649,-0.791 -0.347264,-0.34864 -0.63252,-0.76067 -0.853006,-1.29811 -0.221862,-0.50712 -0.316946,-1.10794 -0.316946,-1.77353 0,-0.50712 0.06339,-0.98117 0.221861,-1.48828 0.158475,-0.50574 0.378962,-0.98117 0.695911,-1.3932 0.31557,-0.41066 0.726225,-0.7593 1.20027,-1.01286 0.505742,-0.25218 1.074871,-0.41065 1.739085,-0.41065 0.695911,0 1.26504,0.12678 1.739085,0.34726 0.474045,0.25356 0.853006,0.50712 1.169952,0.79237 0.347268,0.34727 0.600827,0.72761 0.757922,1.17134 0.158475,0.44235 0.221866,1.01285 0.221866,1.77215 0,0.72899 -0.09509,1.3615 -0.31695,1.90032 z m 7.113431,2.43775 c -0.569129,0 -1.106564,-0.0951 -1.58061,-0.25356 -0.505738,-0.15848 -0.916393,-0.44373 -1.296734,-0.791 -0.37896,-0.34864 -0.662833,-0.79237 -0.853005,-1.29811 -0.221862,-0.50712 -0.31557,-1.13963 -0.31557,-1.83692 h 7.966438 c 0.03168,-0.0951 0.03168,-0.15848 0.03168,-0.25356 0,-0.0951 0,-0.22187 0,-0.34727 0,-0.31695 -0.06339,-0.72898 -0.158475,-1.23472 -0.09508,-0.50712 -0.285256,-0.98254 -0.600828,-1.45659 -0.283871,-0.47542 -0.727604,-0.88745 -1.265036,-1.23472 -0.537435,-0.34864 -1.263663,-0.50712 -2.14974,-0.50712 -0.662836,0 -1.295357,0.12678 -1.896178,0.38034 -0.600827,0.25356 -1.074873,0.60083 -1.517224,1.04456 -0.410655,0.44372 -0.759298,1.01285 -1.011478,1.64675 -0.253559,0.66422 -0.38034,1.3932 -0.38034,2.18419 0,0.69591 0.126781,1.32981 0.348643,1.89894 0.220487,0.57051 0.56913,1.07762 0.979788,1.51997 0.410654,0.41204 0.94809,0.76068 1.548914,0.98117 0.600826,0.25356 1.265039,0.34864 2.022961,0.34864 0.253559,0 0.474044,0 0.695908,-0.0317 0.221863,0 0.410657,-0.0317 0.600826,-0.0634 l -0.09509,-0.82269 c -0.283877,0.0951 -0.632518,0.12678 -1.07487,0.12678 z m -3.666958,-6.11022 c 0.158475,-0.41204 0.378961,-0.79238 0.664213,-1.10795 0.283876,-0.34864 0.631144,-0.63389 1.074872,-0.85576 0.442349,-0.22048 0.948089,-0.34726 1.58061,-0.34726 0.726226,0 1.295355,0.12678 1.737707,0.41065 0.443727,0.25356 0.759296,0.57051 1.011481,0.95085 0.221861,0.37896 0.380335,0.7593 0.443727,1.13964 0.06339,0.37896 0.0937,0.6959 0.0937,0.94946 H -31.4366 c 0.06201,-0.34864 0.157095,-0.72898 0.31557,-1.13963 z m 12.012358,1.77215 3.666959,-4.62194 h -1.074868 l -1.83279,2.34267 c -0.221866,0.28525 -0.442351,0.53881 -0.63252,0.79237 -0.190172,0.25218 -0.410658,0.53743 -0.600827,0.79099 h -0.03168 c -0.188792,-0.28525 -0.410653,-0.53881 -0.600825,-0.79099 -0.188788,-0.25356 -0.410654,-0.53881 -0.63114,-0.82407 l -1.834171,-2.34266 h -1.106564 l 3.635251,4.65363 -3.887444,4.9072 h 1.136883 l 1.865863,-2.43775 c 0.25218,-0.34727 0.505738,-0.66422 0.727604,-0.94947 0.220485,-0.28525 0.442346,-0.57051 0.63114,-0.88608 h 0.03168 c 0.221867,0.28388 0.443733,0.60083 0.664218,0.88608 0.221861,0.28525 0.442349,0.6022 0.695907,0.91777 l 1.927879,2.43775 h 1.138272 z m 0,0" />
  </g>
</svg>
